HIERARCHY
ROOT Bip001_Pelvis
{
  OFFSET -1.81647 95.4634 -9.87528
  CHANNELS 6 Xposition Yposition Zposition Zrotation Xrotation Yrotation
  JOINT Bip001_Spine
  {
    OFFSET 1.44608e-005 10.4157 -0.0118244
    CHANNELS 3 Zrotation Xrotation Yrotation
    JOINT Bip001_L_Thigh
    {
      OFFSET 11.2582 -10.4157 0.0118432
      CHANNELS 3 Zrotation Xrotation Yrotation
      JOINT Bip001_L_Calf
      {
        OFFSET -0.720717 -44.8687 0.366937
        CHANNELS 3 Zrotation Xrotation Yrotation
        JOINT Bip001_L_Foot
        {
          OFFSET -0.664439 -41.3745 -3.62995
          CHANNELS 3 Zrotation Xrotation Yrotation
          JOINT Bip001_L_Toe0
          {
            OFFSET 0.0541047 -10.4146 13.4033
            CHANNELS 3 Zrotation Xrotation Yrotation
            End Site
            {
              OFFSET -1.04503e-005 0 7.70137
            }
          }
        }
      }
    }
    JOINT Bip001_R_Thigh
    {
      OFFSET -11.2582 -10.4156 0.0118122
      CHANNELS 3 Zrotation Xrotation Yrotation
      JOINT Bip001_R_Calf
      {
        OFFSET 0.72059 -44.8687 0.36676
        CHANNELS 3 Zrotation Xrotation Yrotation
        JOINT Bip001_R_Foot
        {
          OFFSET 0.664321 -41.3745 -3.62979
          CHANNELS 3 Zrotation Xrotation Yrotation
          JOINT Bip001_R_Toe0
          {
            OFFSET -0.05417 -10.4146 13.4033
            CHANNELS 3 Zrotation Xrotation Yrotation
            End Site
            {
              OFFSET -1.04873e-005 0 7.70137
            }
          }
        }
      }
    }
    JOINT Bip001_Spine1
    {
      OFFSET 1.90638e-005 14.8539 1.10727
      CHANNELS 3 Zrotation Xrotation Yrotation
      JOINT Bip001_Spine2
      {
        OFFSET 2.28934e-005 14.7848 -1.7233
        CHANNELS 3 Zrotation Xrotation Yrotation
        JOINT Bip001_Neck
        {
          OFFSET 2.24514e-005 15.6905 -0.498826
          CHANNELS 3 Zrotation Xrotation Yrotation
          JOINT Bip001_L_Clavicle
          {
            OFFSET 6.17691 -0.000591152 0.00852867
            CHANNELS 3 Zrotation Xrotation Yrotation
            JOINT Bip001_L_UpperArm
            {
              OFFSET 11.773 -0.0611878 0.00197697
              CHANNELS 3 Zrotation Xrotation Yrotation
              JOINT Bip001_L_Forearm
              {
                OFFSET 26.4514 0.0817568 -2.19579
                CHANNELS 3 Zrotation Xrotation Yrotation
                JOINT Bip001_L_Hand
                {
                  OFFSET 32.8677 0.156744 1.67112
                  CHANNELS 3 Zrotation Xrotation Yrotation
                  JOINT Bip001_L_Finger0
                  {
                    OFFSET 6.16267 -2.25226 6.01674
                    CHANNELS 3 Zrotation Xrotation Yrotation
                    End Site
                    {
                      OFFSET 4.30498 -1.46663 0.618148
                    }
                  }
                  JOINT Bip001_L_Finger1
                  {
                    OFFSET 11.2957 -0.718374 -0.201963
                    CHANNELS 3 Zrotation Xrotation Yrotation
                    End Site
                    {
                      OFFSET 6.31952 -0.405163 -0.0802303
                    }
                  }
                }
              }
            }
          }
          JOINT Bip001_R_Clavicle
          {
            OFFSET -6.17691 -0.000574027 0.00851165
            CHANNELS 3 Zrotation Xrotation Yrotation
            JOINT Bip001_R_UpperArm
            {
              OFFSET -11.773 -0.0611516 0.00194365
              CHANNELS 3 Zrotation Xrotation Yrotation
              JOINT Bip001_R_Forearm
              {
                OFFSET -26.4514 0.0822336 -2.19736
                CHANNELS 3 Zrotation Xrotation Yrotation
                JOINT Bip001_R_Hand
                {
                  OFFSET -32.8677 0.156816 1.67144
                  CHANNELS 3 Zrotation Xrotation Yrotation
                  JOINT Bip001_R_Finger0
                  {
                    OFFSET -6.16269 -2.25224 6.01673
                    CHANNELS 3 Zrotation Xrotation Yrotation
                    End Site
                    {
                      OFFSET -4.30499 -1.46661 0.618137
                    }
                  }
                  JOINT Bip001_R_Finger1
                  {
                    OFFSET -11.2957 -0.718342 -0.201995
                    CHANNELS 3 Zrotation Xrotation Yrotation
                    End Site
                    {
                      OFFSET -6.31952 -0.405145 -0.0802479
                    }
                  }
                }
              }
            }
          }
          JOINT Bip001_Head
          {
            OFFSET 1.11782e-005 11.4912 2.09908
            CHANNELS 3 Zrotation Xrotation Yrotation
            End Site
            {
              OFFSET 2.95144e-005 21.2823 -2.83069e-005
            }
          }
        }
      }
    }
  }
}
MOTION
Frames:	11
Frame Time:	0.0333333
-7.42324 94.0582 3.3707 -4.12174 0.41265 -71.006 -1.63685 2.22789 -3.87498 4.50018 -14.1616 6.50768 0.654234 53.202 1.4973 -5.77821 1.92717 12.8216 -2.95171e-010 1.22923e-008 -1.06843e-007 9.86525 -10.5595 18.6198 0.0142105 25.9589 2.14695 -1.09703 -2.02479 18.7543 4.25816e-007 1.61821e-007 1.07801e-007 -0.178987 4.46801 -6.89737 -0.166867 4.45325 -6.90767 15.0375 -0.404846 -44.4224 -31.6379 -22.7876 29.4547 -52.0245 50.14 0.23115 -2.32368 0.570528 -24.0031 16.2774 -0.160651 1.71592 -3.97569e-016 6.36111e-015 1.39149e-015 9.93923e-016 6.36111e-015 3.97569e-016 2.82782 3.61142 41.5859 34.2231 54.2129 33.4947 1.85278 0.366987 18.9049 2.79614 -4.77425 -2.68362 -1.59028e-015 0 -7.95139e-016 1.59028e-015 -6.36111e-015 -1.19271e-015 1.76867 -25.3942 -14.0738 
-7.54864 94.1151 4.39405 -4.14733 0.990338 -76.2821 -1.09498 2.26716 -3.85985 4.28539 -14.9623 5.11724 0.621849 52.1437 1.6144 -3.61179 -2.43396 13.6334 -2.95163e-010 1.22923e-008 -1.06843e-007 9.43603 -10.8674 20.444 0.00872458 26.1806 2.15016 -0.957398 -1.35992 19.7752 4.25816e-007 1.61821e-007 1.07801e-007 0.0397001 4.50866 -6.66421 0.0479512 4.49771 -6.67195 14.7537 -0.0393386 -42.9954 -31.9578 -22.24 28.0093 -52.2415 51.3227 0.0574744 -2.20699 0.515739 -22.7198 16.6676 -1.70238 1.54019 -4.57205e-015 -3.18055e-015 1.98785e-016 -5.36719e-015 -3.18056e-015 2.98177e-015 3.55002 3.57975 40.0054 33.8404 53.6092 33.6583 1.84906 0.362858 18.8612 2.77574 -5.67374 -2.88689 -7.95139e-016 6.36111e-015 7.95139e-016 1.98785e-015 9.54167e-015 -1.98785e-015 2.37826 -24.4454 -11.1909 
-7.95341 94.3107 5.44759 -4.47213 1.4205 -81.7761 -0.745448 2.38513 -3.70808 3.68651 -14.3899 2.42161 0.517299 48.4947 1.86108 -1.91328 -6.90292 15.4386 -2.95166e-010 1.22923e-008 -1.06843e-007 8.54204 -10.8198 19.987 0.00666348 26.2249 2.15461 -1.09936 -0.691397 22.507 4.25816e-007 1.61821e-007 1.07801e-007 0.306167 4.71745 -6.24777 0.311777 4.70892 -6.25424 14.3831 0.527568 -41.2868 -32.1629 -21.5948 26.2271 -52.4647 52.7752 -0.145208 -2.12213 0.47786 -21.7948 16.4418 -3.01354 1.657 1.59028e-015 -3.18055e-015 -1.59028e-015 1.78906e-015 0 -1.19271e-015 4.40389 3.3434 38.2097 35.1984 51.4615 32.4766 1.84083 0.357525 18.752 3.12418 -5.81467 -3.16594 -9.93923e-016 3.18055e-015 1.59028e-015 -1.39149e-015 0 2.98177e-015 2.86055 -24.6651 -8.54772 
-8.49507 94.6243 6.46364 -4.79903 1.70719 -87.6134 -0.606328 2.49805 -3.45024 3.31659 -12.7781 0.182981 0.37087 42.015 2.11429 -1.58014 -7.34906 9.77856 -2.95168e-010 1.22923e-008 -1.06843e-007 7.37417 -10.7092 18.3895 0.00715265 26.1843 2.15825 -1.5033 -0.0627088 25.9096 4.25816e-007 1.61821e-007 1.07801e-007 0.531559 4.92444 -5.67451 0.535368 4.91695 -5.68079 13.9261 1.50313 -39.3842 -32.2087 -21.1037 24.1088 -52.922 53.2719 -0.0728537 -2.08373 0.464527 -21.3905 15.5641 -3.32215 1.69234 2.98177e-015 -3.18055e-015 1.59028e-015 6.16232e-015 0 -0 5.41977 2.6949 36.3975 37.1801 48.9992 30.8294 1.80218 0.331192 18.3062 2.46808 -3.27509 -3.92906 9.44227e-016 0 -2.08724e-015 2.48481e-015 0 -3.08116e-015 2.86621 -24.2644 -6.02107 
-9.11956 94.9124 7.4428 -4.95765 1.99783 -93.5193 -0.535384 2.57299 -3.1705 3.17845 -11.1431 -1.98187 0.256661 34.9585 2.29849 -1.55196 -5.61714 5.5703 -2.95167e-010 1.22923e-008 -1.06843e-007 6.25824 -10.6113 16.5885 0.00769257 26.1146 2.16319 -1.94961 0.321373 28.7648 4.25816e-007 1.61821e-007 1.07801e-007 0.670231 5.06032 -5.06694 0.672638 5.05365 -5.07347 13.5864 2.59147 -37.349 -32.3524 -20.7031 21.8107 -53.4363 52.1422 0.313075 -2.11312 0.473942 -21.697 14.573 -2.37662 1.7824 -7.95139e-016 -3.18055e-015 -1.59028e-015 -1.19271e-015 -3.18056e-015 -0 6.33111 1.78855 34.529 38.7433 47.4928 29.3726 1.8197 0.353057 18.5383 2.38901 -4.84291 -3.9242 1.98785e-016 0 1.98785e-016 -3.97569e-016 3.18056e-015 5.96354e-016 3.24597 -23.7517 -3.85241 
-9.83058 95.1852 8.30019 -5.04047 2.55264 -99.1435 -0.401192 2.65642 -2.92057 2.98601 -9.90997 -5.10471 0.190388 29.0233 2.44924 -1.22431 -5.7676 3.38637 -2.95167e-010 1.22923e-008 -1.06843e-007 5.64747 -10.025 15.3349 0.0202131 25.6905 2.16821 -2.26791 0.647209 29.6805 4.25816e-007 1.61821e-007 1.07801e-007 0.821159 5.21569 -4.5218 0.822536 5.21014 -4.528 13.3643 3.68274 -35.2461 -32.3903 -20.2373 19.4951 -54.0873 51.0541 1.27428 -2.21527 0.519586 -22.8108 14.1222 -1.80472 1.95934 -1.98785e-016 -3.18055e-015 -1.59028e-015 2.18663e-015 -1.59028e-015 -3.18055e-015 7.21058 0.846522 32.6657 39.781 46.6094 28.6972 1.75456 0.332219 17.8571 2.63052 -5.24722 -3.65685 0 0 -3.97569e-016 -1.98785e-015 3.18056e-015 2.98177e-015 3.60751 -23.2134 -1.97018 
-10.4909 95.3596 9.14515 -4.87749 3.04571 -104.784 -0.156226 2.70457 -2.64536 2.62949 -9.13033 -7.86573 0.147263 23.9532 2.5515 -1.08807 -5.56069 0.137195 -2.95168e-010 1.22923e-008 -1.06843e-007 5.46871 -9.47969 15.4932 0.0206722 25.601 2.17564 -1.90693 0.633608 28.091 4.25816e-007 1.61821e-007 1.07801e-007 0.855121 5.30735 -3.89384 0.855594 5.3041 -3.89826 13.0875 4.76697 -33.157 -32.3367 -19.7574 17.2311 -54.9099 50.3795 2.02423 -2.22699 0.525569 -22.9414 14.6149 -2.34651 1.77542 7.95139e-016 -1.59028e-015 2.38542e-015 2.38542e-015 0 7.95139e-016 8.13577 -0.153461 30.5856 40.0704 46.9006 28.7783 1.67749 0.305336 17.0439 1.50664 -6.73807 -2.66832 5.51738e-032 -3.18055e-015 9.93923e-016 -7.95139e-016 -3.18056e-015 1.39149e-015 3.33646 -22.2916 -0.256106 
-11.0544 95.422 9.99938 -4.43501 3.31261 -110.698 0.0617673 2.71413 -2.27987 2.441 -8.82783 -8.54908 0.119665 19.8755 2.6177 -1.38577 -5.07276 -6.75208 -2.95168e-010 1.22923e-008 -1.06843e-007 5.34845 -9.2625 15.7377 0.0168659 25.6917 2.18335 -1.71886 0.4904 24.9587 4.25816e-007 1.61821e-007 1.07801e-007 0.811558 5.32058 -3.09855 0.811694 5.31926 -3.1009 12.6214 5.49642 -31.0694 -32.4722 -19.0767 15.16 -55.4412 50.1079 2.58388 -2.18563 0.506017 -22.4865 15.6131 -3.292 1.2729 -2.48481e-015 0 -7.95139e-016 -1.88845e-015 0 -1.59028e-015 9.07029 -0.74939 28.5192 39.7244 47.5502 28.9692 1.63421 0.290741 16.5892 0.67395 -9.0928 -2.01902 1.98626e-031 3.18055e-015 -3.57812e-015 -7.95139e-016 4.77083e-015 -2.5842e-015 2.81567 -22.2562 1.54881 
-11.5762 95.433 10.7997 -3.91645 3.37474 -116.372 0.0964503 2.69687 -1.94047 2.29078 -8.85349 -8.80707 0.105137 17.0814 2.65742 -1.60679 -4.70158 -13.3449 -2.95167e-010 1.22923e-008 -1.06843e-007 5.23011 -9.13807 15.3693 0.0214333 25.625 2.18654 -1.6229 0.551452 20.5355 4.25816e-007 1.61821e-007 1.07801e-007 0.657152 5.29937 -2.39051 0.657179 5.29871 -2.39206 12.494 5.93386 -29.0042 -32.8722 -18.2944 13.2374 -55.8633 48.3133 3.08029 -2.17524 0.508831 -22.4003 16.0098 -2.80489 1.16782 -1.49088e-015 -7.95139e-016 -3.18055e-015 4.96962e-016 0 -4.77083e-015 9.77497 -1.17655 26.4773 38.419 48.9144 29.5133 1.61799 0.283374 16.4139 0.0426259 -11.6822 -1.80986 2.48282e-032 1.59028e-015 -8.94531e-016 -3.5863e-032 1.59028e-015 1.2921e-015 2.73899 -22.4511 3.4566 
-12.1477 95.3337 11.6784 -3.40595 3.34887 -121.866 0.154093 2.68228 -1.592 1.65458 -9.03815 -10.2979 0.0968926 15.3814 2.66869 -1.43264 -3.65595 -15.356 -2.95167e-010 1.22923e-008 -1.06843e-007 4.80485 -9.18343 14.0263 0.0261399 25.5269 2.18952 -1.39533 0.357886 18.1728 4.25816e-007 1.61821e-007 1.07801e-007 0.427122 5.27908 -1.65232 0.42714 5.27905 -1.65254 12.6071 6.23294 -27.1154 -33.4287 -17.5441 11.4278 -55.8617 45.5114 3.20011 -2.19979 0.539321 -22.742 15.6466 -2.61079 0.732875 4.96962e-016 -7.95139e-016 -1.59028e-015 -1.98785e-016 0 -0 10.4243 -1.5256 24.4794 37.2714 49.4857 29.7901 1.61124 0.281073 16.3749 -0.17076 -13.001 -1.59278 -1.51728e-032 -7.95139e-016 -1.09332e-015 -1.79315e-032 7.95139e-016 1.2921e-015 3.27615 -21.738 5.24494 
-12.7201 95.0925 12.5021 -2.91191 3.38008 -127.234 0.154359 2.72599 -1.24654 0.687535 -9.42784 -13.7245 0.0947063 14.8775 2.67254 -1.63096 -3.15321 -14.4374 -2.95167e-010 1.22923e-008 -1.06843e-007 4.41079 -9.4686 12.187 0.0206721 25.6049 2.19481 -1.22561 -0.141152 16.9115 4.25816e-007 1.61821e-007 1.07801e-007 0.328541 5.36747 -0.952924 0.328548 5.3675 -0.952773 12.368 6.39293 -25.1823 -33.7215 -16.5488 9.73049 -55.7193 43.4041 2.94541 -2.19134 0.529247 -22.6245 15.511 -1.29407 0.888426 3.90115e-015 5.96354e-016 1.59028e-015 1.49089e-015 1.98785e-016 3.18055e-015 11.0419 -1.76488 22.4879 35.0916 51.292 30.9422 1.60846 0.280949 16.3908 -0.903959 -15.0884 -1.69637 2.638e-032 -5.96354e-016 2.5345e-015 2.38542e-015 -5.96354e-016 2.93207e-015 4.10443 -20.7242 6.64021 
